<?xml version="1.0" encoding="iso-8859-1"?>
<!-- Generator: Adobe Illustrator 19.0.0, SVG Export Plug-In . SVG Version: 6.00 Build 0)  -->
<svg version="1.1" id="Layer_1" xmlns="http://www.w3.org/2000/svg" xmlns:xlink="http://www.w3.org/1999/xlink" x="0px" y="0px"
	 viewBox="0 0 512 512" style="enable-background:new 0 0 512 512;" xml:space="preserve">
<g>
	<g>
		<path d="M454.419,162.684h-282.83L435.301,38.215L421.049,8.018L93.359,162.684H57.581C25.78,162.684,0,188.463,0,220.264v226.137
			c0,31.801,25.78,57.581,57.581,57.581h396.838c31.801,0,57.581-25.78,57.581-57.581V220.264
			C512,188.463,486.22,162.684,454.419,162.684z M85.03,434.279H53.929v-33.391H85.03V434.279z M140.88,434.279h-31.101v-33.391
			h31.101V434.279z M196.73,434.279H165.63v-33.391h31.101V434.279z M196.73,378.113H53.929v-33.391H196.73V378.113z
			 M196.73,321.945H53.929v-33.391H196.73V321.945z M196.73,265.779H53.929v-33.391H196.73V265.779z M355.937,434.279
			c-55.662,0-100.946-45.284-100.946-100.946s45.284-100.946,100.946-100.946s100.946,45.284,100.946,100.946
			S411.599,434.279,355.937,434.279z"/>
	</g>
</g>
<g>
</g>
<g>
</g>
<g>
</g>
<g>
</g>
<g>
</g>
<g>
</g>
<g>
</g>
<g>
</g>
<g>
</g>
<g>
</g>
<g>
</g>
<g>
</g>
<g>
</g>
<g>
</g>
<g>
</g>
</svg>
